<svg xmlns="http://www.w3.org/2000/svg" xmlns:xlink="http://www.w3.org/1999/xlink" width="1080" zoomAndPan="magnify" viewBox="0 0 810 809.999993" height="1080" preserveAspectRatio="xMidYMid meet" version="1.0"><defs><g/><clipPath id="ce3e6e1b6e"><path d="M 198 272.328125 L 312 272.328125 L 312 386 L 198 386 Z M 198 272.328125 " clip-rule="nonzero"/></clipPath><clipPath id="432a11cada"><path d="M 263.039062 358.53125 L 376.835938 358.53125 L 376.835938 471.917969 L 263.039062 471.917969 Z M 263.039062 358.53125 " clip-rule="nonzero"/></clipPath><clipPath id="aa814045cb"><path d="M 177.019531 424 L 290.40625 424 L 290.40625 537.496094 L 177.019531 537.496094 Z M 177.019531 424 " clip-rule="nonzero"/></clipPath><clipPath id="e4ddbdf564"><path d="M 206.816406 372.371094 L 280.925781 372.371094 L 280.925781 437.375 L 206.816406 437.375 Z M 206.816406 372.371094 " clip-rule="nonzero"/></clipPath><clipPath id="1e0bc71316"><path d="M 209.75 382.964844 C 203.75 392.847656 207.976562 402.46875 213.289062 407.578125 L 244.347656 437.375 L 274.753906 407.683594 C 279.691406 402.191406 281.585938 396.363281 280.535156 389.875 C 279.082031 380.898438 271.6875 373.9375 262.550781 372.941406 C 256.945312 372.339844 251.53125 373.925781 247.308594 377.433594 C 246.171875 378.378906 245.15625 379.4375 244.269531 380.582031 C 243.21875 379.277344 241.984375 378.082031 240.59375 377.023438 C 235.734375 373.328125 229.550781 371.863281 223.609375 373.003906 C 217.984375 374.089844 212.933594 377.71875 209.75 382.964844 Z M 209.75 382.964844 " clip-rule="nonzero"/></clipPath><clipPath id="54b1d5e09a"><path d="M 396.4375 330.496094 L 406.832031 330.496094 L 406.832031 462.507812 L 396.4375 462.507812 Z M 396.4375 330.496094 " clip-rule="nonzero"/></clipPath></defs><g clip-path="url(#ce3e6e1b6e)"><path fill="#ffffff" d="M 230.972656 385.898438 C 228.933594 385.898438 226.734375 385.5625 224.632812 384.589844 C 221.144531 382.976562 218.820312 377.082031 216.039062 374.183594 C 211.726562 369.699219 200.117188 365.46875 198.75 357.207031 C 197.828125 351.59375 198.363281 347.351562 199.59375 338.824219 C 200.175781 334.773438 199.570312 330.757812 200.4375 326.847656 C 201.3125 322.921875 203.519531 319.464844 203.992188 315.386719 C 204.261719 313.109375 205.074219 311.011719 205.441406 308.777344 C 205.855469 306.253906 205.339844 303.644531 205.171875 301.089844 C 204.9375 297.503906 204.429688 294.144531 203.546875 290.632812 C 202.757812 287.496094 205.046875 284.835938 206.929688 284.777344 C 206.972656 284.777344 207.015625 284.773438 207.058594 284.773438 C 212.375 284.773438 218.578125 295.277344 219.191406 302.945312 C 219.929688 312.085938 217.425781 318.027344 217.734375 319.757812 C 218.449219 323.765625 220.113281 325.105469 222.421875 325.105469 C 223.335938 325.105469 224.351562 324.898438 225.453125 324.558594 C 228.253906 323.695312 228.808594 323.441406 233.917969 319.171875 C 235.347656 317.976562 238.890625 315.375 239.695312 313.722656 C 239.695312 313.722656 249.011719 297.101562 251.601562 293.160156 C 254.183594 289.21875 258.871094 281.351562 260.40625 278.796875 C 262.917969 274.621094 264.03125 272.515625 266.449219 272.515625 C 267.128906 272.515625 267.914062 272.683594 268.859375 273.015625 C 272.863281 274.433594 271.890625 279.3125 268.65625 285.464844 C 266.171875 290.1875 264.675781 293.515625 261.566406 299.371094 C 259.722656 302.847656 251.164062 316.066406 252.191406 318.023438 C 252.738281 319.0625 253.375 319.457031 254.039062 319.457031 C 255.808594 319.457031 257.792969 316.652344 258.902344 315.5625 C 268.582031 306.089844 273.214844 300.179688 280.925781 293.5 C 284.066406 290.777344 289.890625 283.46875 294.503906 283.46875 C 295.5625 283.46875 296.558594 283.851562 297.441406 284.769531 C 301.246094 288.707031 298.4375 291.691406 296.015625 294.125 C 288.992188 301.167969 287.613281 302.847656 280.726562 309.988281 C 278.386719 312.414062 264.578125 323.609375 265.761719 327.683594 C 266.097656 328.832031 266.789062 329.257812 267.640625 329.257812 C 269.746094 329.257812 272.835938 326.652344 273.917969 325.925781 C 279.988281 321.855469 284.632812 318.234375 290.539062 313.871094 C 293.476562 311.703125 295.851562 309.371094 300.152344 306.605469 C 301.464844 305.761719 302.800781 304.886719 304.234375 304.886719 C 305.351562 304.886719 306.523438 305.417969 307.789062 306.898438 C 310.160156 309.675781 307.390625 312.296875 305.398438 314.457031 C 303.402344 316.613281 295.992188 322.230469 294.058594 323.945312 C 290.582031 327.015625 288.777344 328.21875 285.207031 331.179688 C 281.503906 334.25 275.585938 338.429688 271.835938 341.429688 C 269.238281 343.507812 269.722656 346.269531 273.164062 346.269531 C 273.339844 346.269531 273.523438 346.261719 273.714844 346.246094 C 276.15625 346.058594 284.097656 342.019531 286.0625 341.148438 C 290.519531 339.160156 295.363281 337.269531 299.730469 335.117188 C 300.824219 334.578125 304.515625 332.683594 307.402344 332.683594 C 308.738281 332.683594 309.898438 333.089844 310.554688 334.214844 C 311.976562 336.65625 311.167969 338.207031 305.585938 341.558594 C 300.402344 344.675781 299.519531 345.105469 292.789062 348.550781 C 286.054688 351.992188 272.851562 358.785156 272.84375 358.785156 C 270.644531 359.679688 267.605469 363.574219 265.980469 365.285156 C 262.003906 369.484375 254.523438 375.886719 248.144531 380.015625 C 245.277344 381.875 242.082031 383.148438 238.886719 384.382812 C 237.777344 384.8125 234.632812 385.898438 230.972656 385.898438 " fill-opacity="1" fill-rule="nonzero"/></g><g clip-path="url(#432a11cada)"><path fill="#ffffff" d="M 313.261719 471.832031 C 311.703125 471.832031 310.21875 470.292969 307.789062 466.25 C 304.671875 461.066406 304.242188 460.183594 300.800781 453.449219 C 297.355469 446.714844 290.5625 433.511719 290.5625 433.503906 C 289.671875 431.304688 285.777344 428.269531 284.0625 426.644531 C 279.867188 422.664062 273.464844 415.183594 269.332031 408.804688 C 267.472656 405.9375 266.199219 402.746094 264.964844 399.546875 C 264.296875 397.820312 262.035156 391.179688 264.757812 385.292969 C 266.371094 381.804688 272.265625 379.480469 275.164062 376.703125 C 279.648438 372.386719 283.878906 360.777344 292.140625 359.414062 C 294.09375 359.089844 295.882812 358.945312 297.742188 358.945312 C 301.226562 358.945312 304.964844 359.453125 310.527344 360.253906 C 314.574219 360.835938 318.589844 360.230469 322.503906 361.097656 C 326.429688 361.972656 329.886719 364.179688 333.960938 364.65625 C 336.238281 364.921875 338.335938 365.734375 340.574219 366.101562 C 341.261719 366.214844 341.957031 366.257812 342.65625 366.257812 C 344.515625 366.257812 346.402344 365.953125 348.261719 365.832031 C 351.84375 365.601562 355.203125 365.089844 358.71875 364.207031 C 359.152344 364.097656 359.582031 364.046875 359.992188 364.046875 C 362.542969 364.046875 364.519531 365.96875 364.574219 367.59375 C 364.746094 372.933594 354.132812 379.234375 346.40625 379.855469 C 345.226562 379.949219 344.097656 379.992188 343.03125 379.992188 C 339.65625 379.992188 336.835938 379.585938 334.632812 379.179688 C 332.429688 378.773438 330.84375 378.371094 329.9375 378.371094 C 329.808594 378.371094 329.691406 378.378906 329.589844 378.398438 C 324 379.394531 323.597656 382.234375 324.789062 386.113281 C 325.652344 388.914062 325.90625 389.472656 330.175781 394.578125 C 331.375 396.011719 333.976562 399.554688 335.628906 400.355469 C 335.628906 400.355469 352.246094 409.671875 356.1875 412.261719 C 360.128906 414.847656 368 419.53125 370.554688 421.066406 C 375.902344 424.28125 377.855469 425.210938 376.332031 429.523438 C 375.679688 431.363281 374.296875 432.152344 372.390625 432.152344 C 370.15625 432.152344 367.203125 431.0625 363.886719 429.316406 C 359.160156 426.832031 355.832031 425.335938 349.976562 422.230469 C 346.699219 420.488281 334.742188 412.769531 331.761719 412.769531 C 331.582031 412.769531 331.4375 412.796875 331.324219 412.855469 C 327.53125 414.847656 332.289062 418.039062 333.785156 419.5625 C 343.257812 429.246094 349.167969 433.878906 355.847656 441.585938 C 359.199219 445.449219 369.480469 453.371094 364.582031 458.105469 C 363.183594 459.453125 361.914062 459.96875 360.738281 459.96875 C 358.597656 459.96875 356.796875 458.242188 355.226562 456.679688 C 348.183594 449.65625 346.503906 448.273438 339.363281 441.390625 C 337.035156 439.144531 326.644531 426.351562 322.199219 426.351562 C 322.011719 426.351562 321.832031 426.375 321.664062 426.421875 C 317.679688 427.585938 322.402344 433.0625 323.421875 434.578125 C 327.496094 440.652344 331.113281 445.292969 335.476562 451.199219 C 337.644531 454.136719 339.976562 456.515625 342.742188 460.8125 C 344.242188 463.148438 345.835938 465.554688 342.449219 468.453125 C 341.6875 469.097656 340.941406 469.363281 340.210938 469.363281 C 338.273438 469.363281 336.460938 467.503906 334.890625 466.058594 C 332.734375 464.0625 327.117188 456.652344 325.40625 454.71875 C 322.335938 451.246094 321.128906 449.4375 318.171875 445.867188 C 315.101562 442.167969 310.917969 436.246094 307.917969 432.496094 C 307.035156 431.394531 306.027344 430.847656 305.164062 430.847656 C 303.886719 430.847656 302.917969 432.035156 303.101562 434.375 C 303.289062 436.816406 307.328125 444.757812 308.203125 446.722656 C 310.191406 451.179688 312.078125 456.027344 314.226562 460.390625 C 315.015625 461.988281 318.699219 469.136719 315.132812 471.214844 C 314.460938 471.605469 313.855469 471.832031 313.261719 471.832031 " fill-opacity="1" fill-rule="nonzero"/></g><g clip-path="url(#aa814045cb)"><path fill="#ffffff" d="M 222.238281 537.496094 C 221.558594 537.496094 220.773438 537.328125 219.828125 536.992188 C 215.824219 535.578125 216.796875 530.695312 220.03125 524.546875 C 222.515625 519.820312 224.015625 516.496094 227.121094 510.636719 C 228.964844 507.164062 237.523438 493.945312 236.496094 491.984375 C 235.949219 490.949219 235.3125 490.554688 234.648438 490.554688 C 232.878906 490.554688 230.890625 493.359375 229.785156 494.445312 C 220.105469 503.917969 215.472656 509.828125 207.765625 516.507812 C 204.621094 519.234375 198.796875 526.542969 194.183594 526.542969 C 193.125 526.542969 192.128906 526.15625 191.242188 525.242188 C 187.441406 521.300781 190.25 518.316406 192.671875 515.886719 C 199.695312 508.84375 201.074219 507.164062 207.960938 500.023438 C 210.300781 497.597656 224.109375 486.402344 222.925781 482.328125 C 222.589844 481.179688 221.898438 480.753906 221.046875 480.753906 C 218.9375 480.753906 215.847656 483.355469 214.769531 484.082031 C 208.699219 488.15625 204.054688 491.777344 198.148438 496.136719 C 195.210938 498.308594 192.835938 500.640625 188.535156 503.40625 C 187.222656 504.246094 185.886719 505.125 184.453125 505.125 C 183.335938 505.125 182.164062 504.59375 180.894531 503.109375 C 178.527344 500.335938 181.296875 497.710938 183.289062 495.554688 C 185.285156 493.398438 192.695312 487.777344 194.632812 486.066406 C 198.105469 482.996094 199.910156 481.792969 203.480469 478.832031 C 207.183594 475.761719 213.101562 471.578125 216.851562 468.578125 C 219.449219 466.5 218.964844 463.742188 215.523438 463.742188 C 215.347656 463.742188 215.164062 463.75 214.972656 463.765625 C 212.53125 463.953125 204.589844 467.992188 202.628906 468.863281 C 198.167969 470.851562 193.324219 472.738281 188.957031 474.890625 C 187.867188 475.429688 184.175781 477.324219 181.285156 477.324219 C 179.953125 477.324219 178.789062 476.921875 178.132812 475.792969 C 176.710938 473.351562 177.519531 471.800781 183.097656 468.453125 C 188.28125 465.332031 189.167969 464.902344 195.898438 461.460938 C 202.632812 458.015625 215.835938 451.226562 215.84375 451.222656 C 218.046875 450.332031 221.082031 446.4375 222.707031 444.722656 C 226.683594 440.527344 234.164062 434.125 240.546875 429.992188 C 243.410156 428.132812 246.605469 426.863281 249.804688 425.628906 C 250.914062 425.195312 254.050781 424.109375 257.714844 424.109375 C 259.75 424.109375 261.953125 424.445312 264.054688 425.417969 C 267.542969 427.03125 269.867188 432.929688 272.644531 435.824219 C 276.960938 440.308594 288.570312 444.539062 289.933594 452.804688 C 290.863281 458.414062 290.324219 462.660156 289.09375 471.1875 C 288.511719 475.238281 289.117188 479.25 288.25 483.164062 C 287.375 487.089844 285.171875 490.546875 284.695312 494.621094 C 284.425781 496.902344 283.613281 498.996094 283.246094 501.234375 C 282.832031 503.757812 283.351562 506.367188 283.515625 508.917969 C 283.746094 512.503906 284.257812 515.867188 285.140625 519.378906 C 285.925781 522.515625 283.644531 525.171875 281.757812 525.234375 C 281.714844 525.234375 281.671875 525.234375 281.628906 525.234375 C 276.3125 525.234375 270.109375 514.734375 269.496094 507.066406 C 268.761719 497.925781 271.257812 491.980469 270.949219 490.253906 C 270.234375 486.246094 268.574219 484.902344 266.265625 484.902344 C 265.351562 484.902344 264.335938 485.113281 263.234375 485.453125 C 260.433594 486.3125 259.875 486.570312 254.773438 490.835938 C 253.335938 492.035156 249.796875 494.636719 248.992188 496.289062 C 248.992188 496.289062 239.675781 512.90625 237.089844 516.847656 C 234.5 520.792969 229.816406 528.65625 228.28125 531.214844 C 225.769531 535.390625 224.65625 537.496094 222.238281 537.496094 " fill-opacity="1" fill-rule="nonzero"/></g><path fill="#ffffff" d="M 190.941406 451.0625 C 187.457031 451.0625 183.71875 450.558594 178.160156 449.757812 C 174.113281 449.171875 170.097656 449.777344 166.183594 448.910156 C 162.261719 448.035156 158.800781 445.832031 154.726562 445.355469 C 152.449219 445.085938 150.351562 444.273438 148.113281 443.910156 C 147.425781 443.792969 146.730469 443.75 146.027344 443.75 C 144.167969 443.75 142.28125 444.054688 140.429688 444.179688 C 136.84375 444.410156 133.484375 444.917969 129.96875 445.800781 C 129.535156 445.914062 129.109375 445.960938 128.695312 445.960938 C 126.144531 445.960938 124.167969 444.042969 124.117188 442.417969 C 123.941406 437.074219 134.550781 430.777344 142.28125 430.15625 C 143.464844 430.0625 144.59375 430.019531 145.664062 430.019531 C 149.035156 430.019531 151.855469 430.425781 154.058594 430.828125 C 156.261719 431.234375 157.847656 431.640625 158.75 431.640625 C 158.878906 431.640625 158.996094 431.632812 159.097656 431.613281 C 164.6875 430.617188 165.089844 427.773438 163.898438 423.898438 C 163.035156 421.09375 162.78125 420.539062 158.511719 415.433594 C 157.3125 414 154.710938 410.457031 153.0625 409.652344 C 153.0625 409.652344 136.441406 400.335938 132.5 397.75 C 128.558594 395.164062 120.691406 390.480469 118.132812 388.941406 C 112.785156 385.726562 110.832031 384.800781 112.355469 380.488281 C 113.007812 378.648438 114.390625 377.859375 116.292969 377.859375 C 118.53125 377.859375 121.480469 378.945312 124.804688 380.691406 C 129.527344 383.179688 132.851562 384.675781 138.710938 387.78125 C 141.988281 389.519531 153.945312 397.242188 156.925781 397.242188 C 157.105469 397.242188 157.25 397.214844 157.363281 397.15625 C 161.15625 395.160156 156.398438 391.96875 154.902344 390.445312 C 145.429688 380.765625 139.519531 376.132812 132.839844 368.425781 C 129.488281 364.558594 119.207031 356.636719 124.109375 351.90625 C 125.5 350.558594 126.777344 350.039062 127.949219 350.039062 C 130.089844 350.039062 131.890625 351.765625 133.460938 353.332031 C 140.507812 360.355469 142.183594 361.738281 149.324219 368.621094 C 151.652344 370.867188 162.042969 383.660156 166.484375 383.65625 C 166.675781 383.65625 166.855469 383.632812 167.023438 383.585938 C 171.007812 382.425781 166.285156 376.945312 165.265625 375.429688 C 161.195312 369.359375 157.570312 364.71875 153.210938 358.808594 C 151.039062 355.871094 148.707031 353.496094 145.945312 349.195312 C 144.445312 346.859375 142.847656 344.453125 146.238281 341.558594 C 146.996094 340.914062 147.746094 340.648438 148.476562 340.648438 C 150.417969 340.648438 152.226562 342.503906 153.792969 343.953125 C 155.953125 345.949219 161.570312 353.355469 163.28125 355.292969 C 166.351562 358.765625 167.554688 360.570312 170.515625 364.144531 C 173.585938 367.84375 177.769531 373.761719 180.769531 377.511719 C 181.65625 378.617188 182.660156 379.164062 183.527344 379.164062 C 184.800781 379.164062 185.769531 377.976562 185.585938 375.632812 C 185.394531 373.191406 181.359375 365.25 180.484375 363.289062 C 178.5 358.832031 176.609375 353.984375 174.457031 349.617188 C 173.667969 348.023438 169.984375 340.875 173.554688 338.792969 C 174.226562 338.402344 174.832031 338.179688 175.425781 338.179688 C 176.984375 338.179688 178.46875 339.71875 180.894531 343.761719 C 184.015625 348.945312 184.445312 349.828125 187.886719 356.558594 C 191.332031 363.292969 198.125 376.5 198.125 376.507812 C 199.015625 378.707031 202.910156 381.742188 204.625 383.367188 C 208.820312 387.34375 215.226562 394.828125 219.355469 401.207031 C 221.214844 404.070312 222.488281 407.265625 223.722656 410.464844 C 224.386719 412.191406 226.652344 418.832031 223.929688 424.71875 C 222.316406 428.203125 216.417969 430.527344 213.523438 433.308594 C 209.039062 437.621094 204.808594 449.230469 196.546875 450.597656 C 194.589844 450.917969 192.800781 451.0625 190.941406 451.0625 " fill-opacity="1" fill-rule="nonzero"/><g clip-path="url(#e4ddbdf564)"><g clip-path="url(#1e0bc71316)"><path fill="#ffde59" d="M 206.816406 372.625 L 280.925781 372.625 L 280.925781 437.375 L 206.816406 437.375 Z M 206.816406 372.625 " fill-opacity="1" fill-rule="nonzero"/></g></g><g clip-path="url(#54b1d5e09a)"><path fill="#ffde59" d="M 396.4375 330.496094 L 406.832031 330.496094 L 406.832031 462.492188 L 396.4375 462.492188 Z M 396.4375 330.496094 " fill-opacity="1" fill-rule="nonzero"/></g><g fill="#ffffff" fill-opacity="1"><g transform="translate(426.448734, 391.046527)"><g><path d="M 22.984375 -39.71875 L 22.984375 -35.46875 L 8.796875 -35.46875 L 8.796875 -21.28125 L 22.125 -21.28125 L 22.125 -20.140625 L 8.796875 -20.140625 L 8.796875 0 L 4.25 0 L 4.25 -39.71875 Z M 22.984375 -39.71875 "/></g></g></g><g fill="#ffffff" fill-opacity="1"><g transform="translate(451.246218, 391.046527)"><g><path d="M 15.203125 0.5625 C 12.828125 0.5625 10.71875 0.046875 8.875 -0.984375 C 7.039062 -2.023438 5.625 -3.472656 4.625 -5.328125 C 3.625 -7.179688 3.125 -9.285156 3.125 -11.640625 L 3.125 -27.8125 L 7.375 -27.8125 L 7.375 -11.640625 C 7.375 -9.210938 8.09375 -7.234375 9.53125 -5.703125 C 10.96875 -4.171875 12.859375 -3.40625 15.203125 -3.40625 C 17.554688 -3.40625 19.453125 -4.171875 20.890625 -5.703125 C 22.328125 -7.234375 23.046875 -9.210938 23.046875 -11.640625 L 23.046875 -27.8125 L 27.296875 -27.8125 L 27.296875 -11.640625 C 27.296875 -9.285156 26.789062 -7.179688 25.78125 -5.328125 C 24.78125 -3.472656 23.363281 -2.023438 21.53125 -0.984375 C 19.695312 0.046875 17.585938 0.5625 15.203125 0.5625 Z M 15.203125 0.5625 "/></g></g></g><g fill="#ffffff" fill-opacity="1"><g transform="translate(481.661429, 391.046527)"><g><path d="M 16.453125 -28.375 C 18.691406 -28.375 20.671875 -27.832031 22.390625 -26.75 C 24.109375 -25.675781 25.441406 -24.210938 26.390625 -22.359375 C 27.335938 -20.503906 27.8125 -18.441406 27.8125 -16.171875 L 27.8125 0 L 23.546875 0 L 23.546875 -16.171875 C 23.546875 -18.628906 22.863281 -20.613281 21.5 -22.125 C 20.144531 -23.644531 18.273438 -24.40625 15.890625 -24.40625 C 14.378906 -24.40625 13 -24.050781 11.75 -23.34375 C 10.5 -22.644531 9.503906 -21.671875 8.765625 -20.421875 C 8.023438 -19.179688 7.65625 -17.765625 7.65625 -16.171875 L 7.65625 0 L 3.40625 0 L 3.40625 -27.8125 L 7.65625 -27.8125 L 7.65625 -24.125 C 8.789062 -25.519531 10.101562 -26.578125 11.59375 -27.296875 C 13.09375 -28.015625 14.710938 -28.375 16.453125 -28.375 Z M 16.453125 -28.375 "/></g></g></g><g fill="#ffffff" fill-opacity="1"><g transform="translate(512.587334, 391.046527)"><g><path d="M 25.875 -40.859375 L 30.140625 -40.859375 L 30.140625 0 L 25.875 0 L 25.875 -4.25 C 24.707031 -2.78125 23.234375 -1.609375 21.453125 -0.734375 C 19.671875 0.128906 17.738281 0.5625 15.65625 0.5625 C 13.125 0.5625 10.757812 -0.0664062 8.5625 -1.328125 C 6.375 -2.597656 4.632812 -4.335938 3.34375 -6.546875 C 2.0625 -8.765625 1.421875 -11.21875 1.421875 -13.90625 C 1.421875 -16.59375 2.0625 -19.039062 3.34375 -21.25 C 4.632812 -23.46875 6.375 -25.207031 8.5625 -26.46875 C 10.757812 -27.738281 13.125 -28.375 15.65625 -28.375 C 17.738281 -28.375 19.671875 -27.9375 21.453125 -27.0625 C 23.234375 -26.195312 24.707031 -25.023438 25.875 -23.546875 Z M 16 -3.40625 C 17.851562 -3.40625 19.554688 -3.867188 21.109375 -4.796875 C 22.660156 -5.722656 23.890625 -6.976562 24.796875 -8.5625 C 25.703125 -10.15625 26.15625 -11.9375 26.15625 -13.90625 C 26.15625 -15.875 25.703125 -17.648438 24.796875 -19.234375 C 23.890625 -20.828125 22.660156 -22.085938 21.109375 -23.015625 C 19.554688 -23.941406 17.851562 -24.40625 16 -24.40625 C 14.144531 -24.40625 12.441406 -23.941406 10.890625 -23.015625 C 9.335938 -22.085938 8.109375 -20.828125 7.203125 -19.234375 C 6.296875 -17.648438 5.84375 -15.875 5.84375 -13.90625 C 5.84375 -11.9375 6.296875 -10.15625 7.203125 -8.5625 C 8.109375 -6.976562 9.335938 -5.722656 10.890625 -4.796875 C 12.441406 -3.867188 14.144531 -3.40625 16 -3.40625 Z M 16 -3.40625 "/></g></g></g><g fill="#ffffff" fill-opacity="1"><g transform="translate(546.407224, 391.046527)"><g><path d="M 25.875 -27.8125 L 30.140625 -27.8125 L 30.140625 0 L 25.875 0 L 25.875 -4.25 C 24.707031 -2.78125 23.234375 -1.609375 21.453125 -0.734375 C 19.671875 0.128906 17.738281 0.5625 15.65625 0.5625 C 13.125 0.5625 10.757812 -0.0664062 8.5625 -1.328125 C 6.375 -2.597656 4.632812 -4.335938 3.34375 -6.546875 C 2.0625 -8.765625 1.421875 -11.21875 1.421875 -13.90625 C 1.421875 -16.59375 2.0625 -19.039062 3.34375 -21.25 C 4.632812 -23.46875 6.375 -25.207031 8.5625 -26.46875 C 10.757812 -27.738281 13.125 -28.375 15.65625 -28.375 C 17.738281 -28.375 19.671875 -27.9375 21.453125 -27.0625 C 23.234375 -26.195312 24.707031 -25.023438 25.875 -23.546875 Z M 16 -3.40625 C 17.851562 -3.40625 19.554688 -3.867188 21.109375 -4.796875 C 22.660156 -5.722656 23.890625 -6.976562 24.796875 -8.5625 C 25.703125 -10.15625 26.15625 -11.9375 26.15625 -13.90625 C 26.15625 -15.875 25.703125 -17.648438 24.796875 -19.234375 C 23.890625 -20.828125 22.660156 -22.085938 21.109375 -23.015625 C 19.554688 -23.941406 17.851562 -24.40625 16 -24.40625 C 14.144531 -24.40625 12.441406 -23.941406 10.890625 -23.015625 C 9.335938 -22.085938 8.109375 -20.828125 7.203125 -19.234375 C 6.296875 -17.648438 5.84375 -15.875 5.84375 -13.90625 C 5.84375 -11.9375 6.296875 -10.15625 7.203125 -8.5625 C 8.109375 -6.976562 9.335938 -5.722656 10.890625 -4.796875 C 12.441406 -3.867188 14.144531 -3.40625 16 -3.40625 Z M 16 -3.40625 "/></g></g></g><g fill="#ffffff" fill-opacity="1"><g transform="translate(579.943408, 391.046527)"><g><path d="M 15.65625 0.5625 C 13.082031 0.5625 10.707031 -0.0664062 8.53125 -1.328125 C 6.363281 -2.597656 4.632812 -4.335938 3.34375 -6.546875 C 2.0625 -8.765625 1.421875 -11.21875 1.421875 -13.90625 C 1.421875 -16.59375 2.0625 -19.039062 3.34375 -21.25 C 4.632812 -23.46875 6.363281 -25.207031 8.53125 -26.46875 C 10.707031 -27.738281 13.082031 -28.375 15.65625 -28.375 C 18.800781 -28.375 21.601562 -27.457031 24.0625 -25.625 C 26.519531 -23.789062 28.203125 -21.207031 29.109375 -17.875 L 24.6875 -17.875 C 23.925781 -19.957031 22.734375 -21.566406 21.109375 -22.703125 C 19.484375 -23.835938 17.664062 -24.40625 15.65625 -24.40625 C 13.882812 -24.40625 12.238281 -23.941406 10.71875 -23.015625 C 9.207031 -22.085938 8.015625 -20.828125 7.140625 -19.234375 C 6.273438 -17.648438 5.84375 -15.875 5.84375 -13.90625 C 5.84375 -11.9375 6.273438 -10.15625 7.140625 -8.5625 C 8.015625 -6.976562 9.207031 -5.722656 10.71875 -4.796875 C 12.238281 -3.867188 13.882812 -3.40625 15.65625 -3.40625 C 17.664062 -3.40625 19.484375 -3.972656 21.109375 -5.109375 C 22.734375 -6.242188 23.925781 -7.851562 24.6875 -9.9375 L 29.109375 -9.9375 C 28.203125 -6.601562 26.519531 -4.019531 24.0625 -2.1875 C 21.601562 -0.351562 18.800781 0.5625 15.65625 0.5625 Z M 15.65625 0.5625 "/></g></g></g><g fill="#ffffff" fill-opacity="1"><g transform="translate(610.188378, 391.046527)"><g><path d="M 7.65625 0 L 3.40625 0 L 3.40625 -27.8125 L 7.65625 -27.8125 Z M 7.9375 -33.765625 L 3.109375 -33.765625 L 3.109375 -35.46875 L 7.9375 -35.46875 Z M 7.9375 -33.765625 "/></g></g></g><g fill="#ffffff" fill-opacity="1"><g transform="translate(621.253622, 391.046527)"><g><path d="M 15.953125 0.5625 C 13.296875 0.5625 10.859375 -0.0664062 8.640625 -1.328125 C 6.429688 -2.597656 4.675781 -4.335938 3.375 -6.546875 C 2.070312 -8.765625 1.421875 -11.21875 1.421875 -13.90625 C 1.421875 -16.59375 2.070312 -19.039062 3.375 -21.25 C 4.675781 -23.46875 6.429688 -25.207031 8.640625 -26.46875 C 10.859375 -27.738281 13.296875 -28.375 15.953125 -28.375 C 18.597656 -28.375 21.023438 -27.738281 23.234375 -26.46875 C 25.453125 -25.207031 27.210938 -23.46875 28.515625 -21.25 C 29.816406 -19.039062 30.46875 -16.59375 30.46875 -13.90625 C 30.46875 -11.21875 29.816406 -8.765625 28.515625 -6.546875 C 27.210938 -4.335938 25.453125 -2.597656 23.234375 -1.328125 C 21.023438 -0.0664062 18.597656 0.5625 15.953125 0.5625 Z M 15.953125 -3.40625 C 17.804688 -3.40625 19.5 -3.867188 21.03125 -4.796875 C 22.5625 -5.722656 23.78125 -6.976562 24.6875 -8.5625 C 25.59375 -10.15625 26.046875 -11.9375 26.046875 -13.90625 C 26.046875 -15.875 25.59375 -17.648438 24.6875 -19.234375 C 23.78125 -20.828125 22.5625 -22.085938 21.03125 -23.015625 C 19.5 -23.941406 17.804688 -24.40625 15.953125 -24.40625 C 14.097656 -24.40625 12.398438 -23.941406 10.859375 -23.015625 C 9.328125 -22.085938 8.109375 -20.828125 7.203125 -19.234375 C 6.296875 -17.648438 5.84375 -15.875 5.84375 -13.90625 C 5.84375 -11.9375 6.296875 -10.15625 7.203125 -8.5625 C 8.109375 -6.976562 9.328125 -5.722656 10.859375 -4.796875 C 12.398438 -3.867188 14.097656 -3.40625 15.953125 -3.40625 Z M 23.4375 -36.265625 L 11.96875 -32.34375 L 11.46875 -33.828125 L 22.921875 -37.734375 Z M 23.4375 -36.265625 "/></g></g></g><g fill="#ffffff" fill-opacity="1"><g transform="translate(653.144199, 391.046527)"><g><path d="M 16.453125 -28.375 C 18.691406 -28.375 20.671875 -27.832031 22.390625 -26.75 C 24.109375 -25.675781 25.441406 -24.210938 26.390625 -22.359375 C 27.335938 -20.503906 27.8125 -18.441406 27.8125 -16.171875 L 27.8125 0 L 23.546875 0 L 23.546875 -16.171875 C 23.546875 -18.628906 22.863281 -20.613281 21.5 -22.125 C 20.144531 -23.644531 18.273438 -24.40625 15.890625 -24.40625 C 14.378906 -24.40625 13 -24.050781 11.75 -23.34375 C 10.5 -22.644531 9.503906 -21.671875 8.765625 -20.421875 C 8.023438 -19.179688 7.65625 -17.765625 7.65625 -16.171875 L 7.65625 0 L 3.40625 0 L 3.40625 -27.8125 L 7.65625 -27.8125 L 7.65625 -24.125 C 8.789062 -25.519531 10.101562 -26.578125 11.59375 -27.296875 C 13.09375 -28.015625 14.710938 -28.375 16.453125 -28.375 Z M 16.453125 -28.375 "/></g></g></g><g fill="#ffffff" fill-opacity="1"><g transform="translate(684.091166, 391.046527)"><g/></g></g><g fill="#ffffff" fill-opacity="1"><g transform="translate(428.780871, 447.397161)"><g><path d="M 42 -39.71875 L 46.8125 0 L 42.28125 0 L 38.53125 -32.40625 L 25.53125 0 L 23.671875 0 L 10.4375 -29.6875 L 6.984375 0 L 2.546875 0 L 7.375 -39.71875 L 10.671875 -39.71875 L 26.15625 -4.875 L 40.125 -39.71875 Z M 42 -39.71875 "/></g></g></g><g fill="#ffffff" fill-opacity="1"><g transform="translate(478.148849, 447.397161)"><g><path d="M 25.875 -27.8125 L 30.140625 -27.8125 L 30.140625 0 L 25.875 0 L 25.875 -4.25 C 24.707031 -2.78125 23.234375 -1.609375 21.453125 -0.734375 C 19.671875 0.128906 17.738281 0.5625 15.65625 0.5625 C 13.125 0.5625 10.757812 -0.0664062 8.5625 -1.328125 C 6.375 -2.597656 4.632812 -4.335938 3.34375 -6.546875 C 2.0625 -8.765625 1.421875 -11.21875 1.421875 -13.90625 C 1.421875 -16.59375 2.0625 -19.039062 3.34375 -21.25 C 4.632812 -23.46875 6.375 -25.207031 8.5625 -26.46875 C 10.757812 -27.738281 13.125 -28.375 15.65625 -28.375 C 17.738281 -28.375 19.671875 -27.9375 21.453125 -27.0625 C 23.234375 -26.195312 24.707031 -25.023438 25.875 -23.546875 Z M 16 -3.40625 C 17.851562 -3.40625 19.554688 -3.867188 21.109375 -4.796875 C 22.660156 -5.722656 23.890625 -6.976562 24.796875 -8.5625 C 25.703125 -10.15625 26.15625 -11.9375 26.15625 -13.90625 C 26.15625 -15.875 25.703125 -17.648438 24.796875 -19.234375 C 23.890625 -20.828125 22.660156 -22.085938 21.109375 -23.015625 C 19.554688 -23.941406 17.851562 -24.40625 16 -24.40625 C 14.144531 -24.40625 12.441406 -23.941406 10.890625 -23.015625 C 9.335938 -22.085938 8.109375 -20.828125 7.203125 -19.234375 C 6.296875 -17.648438 5.84375 -15.875 5.84375 -13.90625 C 5.84375 -11.9375 6.296875 -10.15625 7.203125 -8.5625 C 8.109375 -6.976562 9.335938 -5.722656 10.890625 -4.796875 C 12.441406 -3.867188 14.144531 -3.40625 16 -3.40625 Z M 16 -3.40625 "/></g></g></g><g fill="#ffffff" fill-opacity="1"><g transform="translate(511.685034, 447.397161)"><g><path d="M 18.734375 -28.09375 L 18.734375 -24.125 L 15.890625 -24.125 C 14.378906 -24.125 13 -23.769531 11.75 -23.0625 C 10.5 -22.363281 9.503906 -21.390625 8.765625 -20.140625 C 8.023438 -18.898438 7.65625 -17.484375 7.65625 -15.890625 L 7.65625 0 L 3.40625 0 L 3.40625 -27.8125 L 7.65625 -27.8125 L 7.65625 -23.828125 C 8.789062 -25.234375 10.101562 -26.296875 11.59375 -27.015625 C 13.09375 -27.734375 14.710938 -28.09375 16.453125 -28.09375 Z M 18.734375 -28.09375 "/></g></g></g><g fill="#ffffff" fill-opacity="1"><g transform="translate(530.127108, 447.397161)"><g><path d="M 25.3125 -27.8125 L 29.5625 -27.8125 L 29.5625 -1.703125 C 29.5625 0.910156 28.972656 3.253906 27.796875 5.328125 C 26.628906 7.410156 24.992188 9.03125 22.890625 10.1875 C 20.796875 11.34375 18.382812 11.921875 15.65625 11.921875 C 12.289062 11.921875 9.394531 11.007812 6.96875 9.1875 C 4.550781 7.375 2.945312 4.785156 2.15625 1.421875 L 6.40625 1.421875 C 7.019531 3.535156 8.140625 5.148438 9.765625 6.265625 C 11.390625 7.378906 13.351562 7.9375 15.65625 7.9375 C 18.613281 7.9375 20.960938 7.046875 22.703125 5.265625 C 24.441406 3.492188 25.3125 1.171875 25.3125 -1.703125 L 25.3125 -5.328125 C 24.101562 -3.859375 22.65625 -2.695312 20.96875 -1.84375 C 19.28125 -0.988281 17.414062 -0.5625 15.375 -0.5625 C 12.800781 -0.5625 10.457031 -1.148438 8.34375 -2.328125 C 6.226562 -3.503906 4.546875 -5.148438 3.296875 -7.265625 C 2.046875 -9.378906 1.421875 -11.78125 1.421875 -14.46875 C 1.421875 -17.15625 2.046875 -19.554688 3.296875 -21.671875 C 4.546875 -23.796875 6.226562 -25.441406 8.34375 -26.609375 C 10.457031 -27.785156 12.800781 -28.375 15.375 -28.375 C 17.414062 -28.375 19.28125 -27.945312 20.96875 -27.09375 C 22.65625 -26.25 24.101562 -25.085938 25.3125 -23.609375 Z M 15.71875 -4.546875 C 17.570312 -4.546875 19.253906 -4.976562 20.765625 -5.84375 C 22.285156 -6.71875 23.46875 -7.910156 24.3125 -9.421875 C 25.164062 -10.929688 25.59375 -12.613281 25.59375 -14.46875 C 25.59375 -16.320312 25.164062 -18.003906 24.3125 -19.515625 C 23.46875 -21.035156 22.285156 -22.226562 20.765625 -23.09375 C 19.253906 -23.96875 17.570312 -24.40625 15.71875 -24.40625 C 13.863281 -24.40625 12.179688 -23.96875 10.671875 -23.09375 C 9.160156 -22.226562 7.976562 -21.035156 7.125 -19.515625 C 6.269531 -18.003906 5.84375 -16.320312 5.84375 -14.46875 C 5.84375 -12.613281 6.269531 -10.929688 7.125 -9.421875 C 7.976562 -7.910156 9.160156 -6.71875 10.671875 -5.84375 C 12.179688 -4.976562 13.863281 -4.546875 15.71875 -4.546875 Z M 15.71875 -4.546875 "/></g></g></g><g fill="#ffffff" fill-opacity="1"><g transform="translate(563.095851, 447.397161)"><g><path d="M 25.875 -27.8125 L 30.140625 -27.8125 L 30.140625 0 L 25.875 0 L 25.875 -4.25 C 24.707031 -2.78125 23.234375 -1.609375 21.453125 -0.734375 C 19.671875 0.128906 17.738281 0.5625 15.65625 0.5625 C 13.125 0.5625 10.757812 -0.0664062 8.5625 -1.328125 C 6.375 -2.597656 4.632812 -4.335938 3.34375 -6.546875 C 2.0625 -8.765625 1.421875 -11.21875 1.421875 -13.90625 C 1.421875 -16.59375 2.0625 -19.039062 3.34375 -21.25 C 4.632812 -23.46875 6.375 -25.207031 8.5625 -26.46875 C 10.757812 -27.738281 13.125 -28.375 15.65625 -28.375 C 17.738281 -28.375 19.671875 -27.9375 21.453125 -27.0625 C 23.234375 -26.195312 24.707031 -25.023438 25.875 -23.546875 Z M 16 -3.40625 C 17.851562 -3.40625 19.554688 -3.867188 21.109375 -4.796875 C 22.660156 -5.722656 23.890625 -6.976562 24.796875 -8.5625 C 25.703125 -10.15625 26.15625 -11.9375 26.15625 -13.90625 C 26.15625 -15.875 25.703125 -17.648438 24.796875 -19.234375 C 23.890625 -20.828125 22.660156 -22.085938 21.109375 -23.015625 C 19.554688 -23.941406 17.851562 -24.40625 16 -24.40625 C 14.144531 -24.40625 12.441406 -23.941406 10.890625 -23.015625 C 9.335938 -22.085938 8.109375 -20.828125 7.203125 -19.234375 C 6.296875 -17.648438 5.84375 -15.875 5.84375 -13.90625 C 5.84375 -11.9375 6.296875 -10.15625 7.203125 -8.5625 C 8.109375 -6.976562 9.335938 -5.722656 10.890625 -4.796875 C 12.441406 -3.867188 14.144531 -3.40625 16 -3.40625 Z M 16 -3.40625 "/></g></g></g><g fill="#ffffff" fill-opacity="1"><g transform="translate(596.632036, 447.397161)"><g><path d="M 18.734375 -28.09375 L 18.734375 -24.125 L 15.890625 -24.125 C 14.378906 -24.125 13 -23.769531 11.75 -23.0625 C 10.5 -22.363281 9.503906 -21.390625 8.765625 -20.140625 C 8.023438 -18.898438 7.65625 -17.484375 7.65625 -15.890625 L 7.65625 0 L 3.40625 0 L 3.40625 -27.8125 L 7.65625 -27.8125 L 7.65625 -23.828125 C 8.789062 -25.234375 10.101562 -26.296875 11.59375 -27.015625 C 13.09375 -27.734375 14.710938 -28.09375 16.453125 -28.09375 Z M 18.734375 -28.09375 "/></g></g></g><g fill="#ffffff" fill-opacity="1"><g transform="translate(615.07411, 447.397161)"><g><path d="M 7.65625 0 L 3.40625 0 L 3.40625 -27.8125 L 7.65625 -27.8125 Z M 7.9375 -33.765625 L 3.109375 -33.765625 L 3.109375 -35.46875 L 7.9375 -35.46875 Z M 7.9375 -33.765625 "/></g></g></g><g fill="#ffffff" fill-opacity="1"><g transform="translate(626.139354, 447.397161)"><g><path d="M 15.609375 -26.671875 L 8.515625 -26.671875 L 8.515625 -8.515625 C 8.515625 -7.109375 8.921875 -6 9.734375 -5.1875 C 10.546875 -4.375 11.648438 -3.96875 13.046875 -3.96875 L 15.609375 -3.96875 L 15.609375 0 L 12.765625 0 C 10.234375 0 8.179688 -0.765625 6.609375 -2.296875 C 5.035156 -3.828125 4.25 -5.804688 4.25 -8.234375 L 4.25 -26.671875 L -0.28125 -26.671875 L -0.28125 -27.8125 L 4.25 -27.8125 L 4.25 -35.1875 L 8.515625 -35.1875 L 8.515625 -27.8125 L 15.609375 -27.8125 Z M 15.609375 -26.671875 "/></g></g></g><g fill="#ffffff" fill-opacity="1"><g transform="translate(642.027895, 447.397161)"><g><path d="M 25.875 -27.8125 L 30.140625 -27.8125 L 30.140625 0 L 25.875 0 L 25.875 -4.25 C 24.707031 -2.78125 23.234375 -1.609375 21.453125 -0.734375 C 19.671875 0.128906 17.738281 0.5625 15.65625 0.5625 C 13.125 0.5625 10.757812 -0.0664062 8.5625 -1.328125 C 6.375 -2.597656 4.632812 -4.335938 3.34375 -6.546875 C 2.0625 -8.765625 1.421875 -11.21875 1.421875 -13.90625 C 1.421875 -16.59375 2.0625 -19.039062 3.34375 -21.25 C 4.632812 -23.46875 6.375 -25.207031 8.5625 -26.46875 C 10.757812 -27.738281 13.125 -28.375 15.65625 -28.375 C 17.738281 -28.375 19.671875 -27.9375 21.453125 -27.0625 C 23.234375 -26.195312 24.707031 -25.023438 25.875 -23.546875 Z M 16 -3.40625 C 17.851562 -3.40625 19.554688 -3.867188 21.109375 -4.796875 C 22.660156 -5.722656 23.890625 -6.976562 24.796875 -8.5625 C 25.703125 -10.15625 26.15625 -11.9375 26.15625 -13.90625 C 26.15625 -15.875 25.703125 -17.648438 24.796875 -19.234375 C 23.890625 -20.828125 22.660156 -22.085938 21.109375 -23.015625 C 19.554688 -23.941406 17.851562 -24.40625 16 -24.40625 C 14.144531 -24.40625 12.441406 -23.941406 10.890625 -23.015625 C 9.335938 -22.085938 8.109375 -20.828125 7.203125 -19.234375 C 6.296875 -17.648438 5.84375 -15.875 5.84375 -13.90625 C 5.84375 -11.9375 6.296875 -10.15625 7.203125 -8.5625 C 8.109375 -6.976562 9.335938 -5.722656 10.890625 -4.796875 C 12.441406 -3.867188 14.144531 -3.40625 16 -3.40625 Z M 16 -3.40625 "/></g></g></g></svg>