<svg xmlns="http://www.w3.org/2000/svg" xmlns:xlink="http://www.w3.org/1999/xlink" width="120" zoomAndPan="magnify" viewBox="0 0 90 44.999999" height="60" preserveAspectRatio="xMidYMid meet" version="1.0"><defs><g/><clipPath id="ead983b902"><path d="M 13 2.207031 L 31 2.207031 L 31 20 L 13 20 Z M 13 2.207031 " clip-rule="nonzero"/></clipPath><clipPath id="47bed44942"><path d="M 23.285156 15.390625 L 40.5 15.390625 L 40.5 32.734375 L 23.285156 32.734375 Z M 23.285156 15.390625 " clip-rule="nonzero"/></clipPath><clipPath id="8dc64f5345"><path d="M 10.128906 25.359375 L 27.46875 25.359375 L 27.46875 42.707031 L 10.128906 42.707031 Z M 10.128906 25.359375 " clip-rule="nonzero"/></clipPath><clipPath id="3dcd508e08"><path d="M 14.683594 17.507812 L 26.019531 17.507812 L 26.019531 27.453125 L 14.683594 27.453125 Z M 14.683594 17.507812 " clip-rule="nonzero"/></clipPath><clipPath id="a258a205c8"><path d="M 15.132812 19.128906 C 14.214844 20.640625 14.863281 22.113281 15.675781 22.894531 L 20.425781 27.453125 L 25.078125 22.910156 C 25.832031 22.070312 26.121094 21.179688 25.960938 20.1875 C 25.738281 18.8125 24.609375 17.75 23.210938 17.597656 C 22.351562 17.503906 21.523438 17.746094 20.878906 18.285156 C 20.703125 18.429688 20.550781 18.589844 20.414062 18.765625 C 20.253906 18.566406 20.066406 18.382812 19.851562 18.21875 C 19.109375 17.65625 18.164062 17.429688 17.253906 17.605469 C 16.394531 17.773438 15.621094 18.328125 15.132812 19.128906 Z M 15.132812 19.128906 " clip-rule="nonzero"/></clipPath><clipPath id="b6d146cbdc"><path d="M 43.691406 11.105469 L 45.28125 11.105469 L 45.28125 31.296875 L 43.691406 31.296875 Z M 43.691406 11.105469 " clip-rule="nonzero"/></clipPath></defs><g clip-path="url(#ead983b902)"><path fill="#ffffff" d="M 18.378906 19.574219 C 18.066406 19.574219 17.730469 19.523438 17.410156 19.375 C 16.875 19.128906 16.519531 18.226562 16.09375 17.785156 C 15.433594 17.097656 13.660156 16.449219 13.449219 15.1875 C 13.308594 14.328125 13.390625 13.679688 13.578125 12.375 C 13.667969 11.757812 13.578125 11.140625 13.710938 10.542969 C 13.84375 9.941406 14.179688 9.414062 14.253906 8.789062 C 14.292969 8.441406 14.417969 8.121094 14.472656 7.78125 C 14.539062 7.394531 14.457031 6.996094 14.433594 6.605469 C 14.398438 6.054688 14.320312 5.542969 14.183594 5.003906 C 14.0625 4.523438 14.414062 4.117188 14.703125 4.109375 C 14.707031 4.109375 14.714844 4.109375 14.722656 4.109375 C 15.535156 4.109375 16.484375 5.714844 16.578125 6.886719 C 16.691406 8.285156 16.308594 9.195312 16.355469 9.460938 C 16.464844 10.070312 16.71875 10.277344 17.070312 10.277344 C 17.210938 10.277344 17.367188 10.246094 17.535156 10.195312 C 17.964844 10.0625 18.050781 10.023438 18.828125 9.371094 C 19.050781 9.1875 19.589844 8.789062 19.714844 8.535156 C 19.714844 8.535156 21.140625 5.992188 21.535156 5.390625 C 21.929688 4.789062 22.648438 3.585938 22.882812 3.195312 C 23.265625 2.554688 23.4375 2.234375 23.804688 2.234375 C 23.910156 2.234375 24.03125 2.257812 24.175781 2.308594 C 24.785156 2.527344 24.636719 3.273438 24.144531 4.214844 C 23.761719 4.9375 23.535156 5.445312 23.058594 6.339844 C 22.777344 6.871094 21.46875 8.894531 21.625 9.195312 C 21.707031 9.351562 21.804688 9.414062 21.90625 9.414062 C 22.179688 9.414062 22.480469 8.984375 22.652344 8.816406 C 24.132812 7.367188 24.839844 6.464844 26.019531 5.441406 C 26.5 5.027344 27.390625 3.910156 28.097656 3.910156 C 28.257812 3.910156 28.410156 3.96875 28.546875 4.105469 C 29.128906 4.710938 28.699219 5.167969 28.328125 5.539062 C 27.253906 6.617188 27.042969 6.871094 25.988281 7.964844 C 25.632812 8.335938 23.519531 10.046875 23.703125 10.671875 C 23.753906 10.847656 23.859375 10.910156 23.988281 10.910156 C 24.308594 10.910156 24.78125 10.515625 24.949219 10.402344 C 25.878906 9.78125 26.585938 9.226562 27.492188 8.558594 C 27.941406 8.226562 28.304688 7.871094 28.960938 7.449219 C 29.164062 7.316406 29.367188 7.183594 29.585938 7.183594 C 29.757812 7.183594 29.9375 7.265625 30.128906 7.492188 C 30.492188 7.917969 30.066406 8.316406 29.761719 8.648438 C 29.457031 8.976562 28.324219 9.835938 28.027344 10.097656 C 27.496094 10.570312 27.222656 10.753906 26.675781 11.207031 C 26.109375 11.675781 25.203125 12.316406 24.628906 12.773438 C 24.234375 13.09375 24.308594 13.515625 24.832031 13.515625 C 24.859375 13.515625 24.886719 13.511719 24.917969 13.511719 C 25.289062 13.480469 26.503906 12.863281 26.804688 12.730469 C 27.488281 12.425781 28.230469 12.136719 28.898438 11.808594 C 29.0625 11.726562 29.628906 11.4375 30.070312 11.4375 C 30.273438 11.4375 30.453125 11.5 30.550781 11.671875 C 30.769531 12.042969 30.644531 12.28125 29.792969 12.792969 C 29 13.269531 28.863281 13.335938 27.835938 13.863281 C 26.804688 14.390625 24.785156 15.429688 24.785156 15.429688 C 24.449219 15.566406 23.984375 16.160156 23.734375 16.421875 C 23.125 17.066406 21.980469 18.042969 21.007812 18.675781 C 20.566406 18.960938 20.078125 19.15625 19.589844 19.34375 C 19.421875 19.410156 18.941406 19.574219 18.378906 19.574219 " fill-opacity="1" fill-rule="nonzero"/></g><g clip-path="url(#47bed44942)"><path fill="#ffffff" d="M 30.964844 32.71875 C 30.726562 32.71875 30.5 32.484375 30.128906 31.867188 C 29.652344 31.074219 29.585938 30.9375 29.058594 29.910156 C 28.535156 28.878906 27.496094 26.859375 27.496094 26.859375 C 27.359375 26.519531 26.761719 26.058594 26.5 25.808594 C 25.859375 25.199219 24.878906 24.054688 24.246094 23.078125 C 23.960938 22.640625 23.769531 22.152344 23.578125 21.664062 C 23.476562 21.398438 23.132812 20.382812 23.546875 19.484375 C 23.792969 18.949219 24.695312 18.59375 25.140625 18.167969 C 25.824219 17.507812 26.472656 15.734375 27.734375 15.523438 C 28.035156 15.476562 28.308594 15.453125 28.59375 15.453125 C 29.125 15.453125 29.699219 15.53125 30.546875 15.652344 C 31.167969 15.742188 31.78125 15.648438 32.378906 15.78125 C 32.980469 15.917969 33.507812 16.253906 34.132812 16.328125 C 34.480469 16.367188 34.800781 16.492188 35.144531 16.546875 C 35.25 16.566406 35.355469 16.570312 35.460938 16.570312 C 35.746094 16.570312 36.035156 16.523438 36.320312 16.507812 C 36.867188 16.472656 37.382812 16.394531 37.917969 16.257812 C 37.984375 16.242188 38.050781 16.234375 38.113281 16.234375 C 38.503906 16.234375 38.808594 16.527344 38.816406 16.777344 C 38.839844 17.59375 37.21875 18.558594 36.035156 18.652344 C 35.855469 18.667969 35.683594 18.671875 35.519531 18.671875 C 35.003906 18.671875 34.574219 18.609375 34.234375 18.546875 C 33.898438 18.484375 33.65625 18.425781 33.515625 18.425781 C 33.496094 18.425781 33.480469 18.425781 33.464844 18.429688 C 32.609375 18.582031 32.546875 19.015625 32.730469 19.609375 C 32.863281 20.039062 32.902344 20.121094 33.554688 20.902344 C 33.738281 21.121094 34.136719 21.664062 34.386719 21.789062 C 34.386719 21.789062 36.929688 23.210938 37.53125 23.609375 C 38.136719 24.003906 39.339844 24.71875 39.730469 24.957031 C 40.546875 25.445312 40.847656 25.589844 40.613281 26.25 C 40.515625 26.53125 40.300781 26.652344 40.011719 26.652344 C 39.667969 26.652344 39.21875 26.484375 38.710938 26.21875 C 37.988281 25.835938 37.476562 25.609375 36.582031 25.132812 C 36.082031 24.867188 34.253906 23.6875 33.796875 23.6875 C 33.769531 23.6875 33.746094 23.691406 33.730469 23.699219 C 33.148438 24.003906 33.875 24.492188 34.105469 24.726562 C 35.554688 26.207031 36.457031 26.914062 37.480469 28.09375 C 37.992188 28.683594 39.566406 29.894531 38.816406 30.621094 C 38.601562 30.828125 38.40625 30.90625 38.226562 30.90625 C 37.902344 30.90625 37.625 30.640625 37.386719 30.402344 C 36.308594 29.328125 36.050781 29.117188 34.957031 28.0625 C 34.601562 27.71875 33.011719 25.765625 32.332031 25.765625 C 32.304688 25.765625 32.277344 25.765625 32.25 25.773438 C 31.640625 25.953125 32.363281 26.789062 32.519531 27.023438 C 33.144531 27.949219 33.695312 28.660156 34.363281 29.5625 C 34.695312 30.011719 35.054688 30.378906 35.476562 31.035156 C 35.707031 31.390625 35.949219 31.761719 35.429688 32.203125 C 35.316406 32.300781 35.199219 32.34375 35.089844 32.34375 C 34.792969 32.34375 34.515625 32.058594 34.273438 31.835938 C 33.945312 31.53125 33.085938 30.398438 32.824219 30.101562 C 32.355469 29.570312 32.171875 29.292969 31.71875 28.75 C 31.246094 28.183594 30.609375 27.277344 30.148438 26.703125 C 30.015625 26.535156 29.859375 26.453125 29.726562 26.453125 C 29.53125 26.453125 29.382812 26.632812 29.414062 26.992188 C 29.441406 27.363281 30.058594 28.578125 30.191406 28.878906 C 30.496094 29.5625 30.785156 30.300781 31.113281 30.96875 C 31.234375 31.214844 31.796875 32.308594 31.253906 32.625 C 31.148438 32.6875 31.058594 32.71875 30.964844 32.71875 " fill-opacity="1" fill-rule="nonzero"/></g><g clip-path="url(#8dc64f5345)"><path fill="#ffffff" d="M 17.042969 42.765625 C 16.941406 42.765625 16.820312 42.738281 16.675781 42.6875 C 16.0625 42.46875 16.210938 41.722656 16.707031 40.78125 C 17.085938 40.058594 17.316406 39.550781 17.789062 38.65625 C 18.070312 38.125 19.382812 36.101562 19.222656 35.804688 C 19.140625 35.644531 19.042969 35.582031 18.941406 35.582031 C 18.671875 35.582031 18.367188 36.011719 18.199219 36.179688 C 16.71875 37.628906 16.007812 38.53125 14.828125 39.554688 C 14.347656 39.96875 13.457031 41.089844 12.753906 41.089844 C 12.589844 41.089844 12.4375 41.03125 12.304688 40.890625 C 11.722656 40.289062 12.152344 39.832031 12.519531 39.457031 C 13.59375 38.382812 13.804688 38.125 14.859375 37.03125 C 15.21875 36.660156 17.328125 34.949219 17.148438 34.324219 C 17.097656 34.148438 16.992188 34.085938 16.863281 34.085938 C 16.539062 34.085938 16.066406 34.484375 15.902344 34.59375 C 14.972656 35.21875 14.261719 35.769531 13.359375 36.4375 C 12.910156 36.769531 12.546875 37.125 11.886719 37.550781 C 11.6875 37.679688 11.484375 37.8125 11.265625 37.8125 C 11.09375 37.8125 10.914062 37.730469 10.71875 37.503906 C 10.359375 37.078125 10.78125 36.679688 11.085938 36.347656 C 11.390625 36.019531 12.523438 35.160156 12.820312 34.898438 C 13.351562 34.425781 13.628906 34.242188 14.175781 33.789062 C 14.742188 33.320312 15.644531 32.679688 16.21875 32.222656 C 16.617188 31.90625 16.542969 31.484375 16.015625 31.484375 C 15.988281 31.484375 15.960938 31.484375 15.933594 31.484375 C 15.558594 31.515625 14.34375 32.132812 14.042969 32.265625 C 13.363281 32.570312 12.621094 32.859375 11.953125 33.1875 C 11.785156 33.269531 11.222656 33.558594 10.78125 33.558594 C 10.574219 33.558594 10.398438 33.5 10.296875 33.328125 C 10.078125 32.953125 10.203125 32.714844 11.058594 32.203125 C 11.851562 31.726562 11.984375 31.660156 13.015625 31.132812 C 14.042969 30.605469 16.0625 29.566406 16.066406 29.566406 C 16.402344 29.429688 16.867188 28.835938 17.113281 28.574219 C 17.722656 27.933594 18.867188 26.953125 19.84375 26.320312 C 20.28125 26.035156 20.769531 25.839844 21.261719 25.652344 C 21.429688 25.585938 21.910156 25.421875 22.46875 25.421875 C 22.78125 25.421875 23.117188 25.472656 23.441406 25.621094 C 23.972656 25.867188 24.328125 26.769531 24.753906 27.210938 C 25.414062 27.898438 27.1875 28.546875 27.398438 29.808594 C 27.539062 30.667969 27.457031 31.316406 27.269531 32.621094 C 27.179688 33.242188 27.273438 33.855469 27.140625 34.453125 C 27.007812 35.054688 26.667969 35.582031 26.597656 36.207031 C 26.554688 36.554688 26.429688 36.875 26.375 37.21875 C 26.3125 37.601562 26.390625 38.003906 26.417969 38.394531 C 26.453125 38.941406 26.53125 39.457031 26.664062 39.992188 C 26.785156 40.472656 26.4375 40.878906 26.148438 40.886719 C 26.140625 40.890625 26.132812 40.890625 26.128906 40.890625 C 25.316406 40.886719 24.367188 39.28125 24.273438 38.109375 C 24.160156 36.710938 24.542969 35.800781 24.496094 35.539062 C 24.386719 34.925781 24.132812 34.71875 23.777344 34.71875 C 23.636719 34.71875 23.484375 34.75 23.316406 34.804688 C 22.886719 34.933594 22.800781 34.972656 22.019531 35.625 C 21.800781 35.8125 21.257812 36.207031 21.136719 36.460938 C 21.136719 36.460938 19.710938 39.003906 19.316406 39.605469 C 18.917969 40.210938 18.203125 41.410156 17.96875 41.804688 C 17.585938 42.441406 17.414062 42.765625 17.042969 42.765625 " fill-opacity="1" fill-rule="nonzero"/></g><path fill="#ffffff" d="M 12.257812 29.542969 C 11.722656 29.542969 11.152344 29.464844 10.300781 29.34375 C 9.683594 29.253906 9.066406 29.347656 8.46875 29.214844 C 7.871094 29.082031 7.339844 28.742188 6.71875 28.671875 C 6.367188 28.628906 6.046875 28.503906 5.707031 28.449219 C 5.601562 28.429688 5.492188 28.425781 5.386719 28.425781 C 5.101562 28.425781 4.8125 28.472656 4.53125 28.492188 C 3.980469 28.527344 3.46875 28.605469 2.929688 28.738281 C 2.863281 28.753906 2.796875 28.761719 2.734375 28.761719 C 2.34375 28.761719 2.042969 28.46875 2.035156 28.222656 C 2.007812 27.402344 3.632812 26.441406 4.8125 26.34375 C 4.996094 26.332031 5.167969 26.324219 5.332031 26.324219 C 5.847656 26.324219 6.277344 26.386719 6.613281 26.449219 C 6.953125 26.511719 7.195312 26.574219 7.332031 26.574219 C 7.351562 26.574219 7.371094 26.570312 7.386719 26.570312 C 8.242188 26.414062 8.300781 25.980469 8.121094 25.386719 C 7.988281 24.960938 7.949219 24.875 7.296875 24.09375 C 7.113281 23.875 6.714844 23.332031 6.460938 23.210938 C 6.460938 23.210938 3.921875 21.785156 3.316406 21.390625 C 2.714844 20.992188 1.511719 20.277344 1.121094 20.042969 C 0.300781 19.550781 0.00390625 19.40625 0.234375 18.75 C 0.335938 18.46875 0.546875 18.347656 0.839844 18.347656 C 1.179688 18.347656 1.632812 18.511719 2.140625 18.78125 C 2.863281 19.160156 3.371094 19.390625 4.269531 19.863281 C 4.769531 20.128906 6.597656 21.3125 7.054688 21.3125 C 7.082031 21.3125 7.101562 21.308594 7.121094 21.296875 C 7.699219 20.992188 6.972656 20.503906 6.746094 20.269531 C 5.296875 18.792969 4.390625 18.082031 3.371094 16.902344 C 2.855469 16.3125 1.285156 15.101562 2.035156 14.375 C 2.246094 14.171875 2.441406 14.089844 2.621094 14.089844 C 2.949219 14.089844 3.222656 14.355469 3.464844 14.59375 C 4.542969 15.667969 4.796875 15.878906 5.890625 16.933594 C 6.246094 17.277344 7.835938 19.234375 8.515625 19.234375 C 8.546875 19.234375 8.574219 19.230469 8.597656 19.222656 C 9.207031 19.046875 8.484375 18.207031 8.328125 17.976562 C 7.707031 17.046875 7.152344 16.335938 6.484375 15.433594 C 6.152344 14.984375 5.796875 14.621094 5.375 13.960938 C 5.144531 13.605469 4.898438 13.238281 5.417969 12.792969 C 5.535156 12.695312 5.648438 12.65625 5.761719 12.65625 C 6.058594 12.65625 6.335938 12.9375 6.574219 13.160156 C 6.90625 13.464844 7.765625 14.597656 8.027344 14.894531 C 8.496094 15.425781 8.679688 15.703125 9.132812 16.25 C 9.601562 16.8125 10.242188 17.71875 10.699219 18.292969 C 10.835938 18.460938 10.988281 18.546875 11.121094 18.546875 C 11.316406 18.546875 11.464844 18.363281 11.4375 18.003906 C 11.410156 17.632812 10.789062 16.417969 10.65625 16.117188 C 10.351562 15.4375 10.0625 14.695312 9.734375 14.027344 C 9.613281 13.78125 9.050781 12.6875 9.597656 12.371094 C 9.699219 12.3125 9.792969 12.277344 9.882812 12.277344 C 10.121094 12.277344 10.347656 12.511719 10.71875 13.128906 C 11.195312 13.921875 11.261719 14.058594 11.789062 15.089844 C 12.316406 16.117188 13.355469 18.136719 13.355469 18.140625 C 13.492188 18.476562 14.085938 18.941406 14.347656 19.1875 C 14.992188 19.796875 15.972656 20.941406 16.601562 21.917969 C 16.886719 22.355469 17.082031 22.84375 17.269531 23.332031 C 17.371094 23.597656 17.71875 24.613281 17.300781 25.515625 C 17.054688 26.046875 16.152344 26.402344 15.710938 26.828125 C 15.023438 27.488281 14.378906 29.261719 13.113281 29.472656 C 12.816406 29.519531 12.542969 29.542969 12.257812 29.542969 " fill-opacity="1" fill-rule="nonzero"/><g clip-path="url(#3dcd508e08)"><g clip-path="url(#a258a205c8)"><path fill="#ffde59" d="M 14.683594 17.546875 L 26.019531 17.546875 L 26.019531 27.453125 L 14.683594 27.453125 Z M 14.683594 17.546875 " fill-opacity="1" fill-rule="nonzero"/></g></g><g clip-path="url(#b6d146cbdc)"><path fill="#ffde59" d="M 43.691406 11.105469 L 45.28125 11.105469 L 45.28125 31.292969 L 43.691406 31.292969 Z M 43.691406 11.105469 " fill-opacity="1" fill-rule="nonzero"/></g><g fill="#ffffff" fill-opacity="1"><g transform="translate(48.280863, 20.365634)"><g><path d="M 3.515625 -6.078125 L 3.515625 -5.421875 L 1.34375 -5.421875 L 1.34375 -3.25 L 3.390625 -3.25 L 3.390625 -3.078125 L 1.34375 -3.078125 L 1.34375 0 L 0.65625 0 L 0.65625 -6.078125 Z M 3.515625 -6.078125 "/></g></g></g><g fill="#ffffff" fill-opacity="1"><g transform="translate(52.073963, 20.365634)"><g><path d="M 2.328125 0.09375 C 1.960938 0.09375 1.640625 0.015625 1.359375 -0.140625 C 1.078125 -0.304688 0.859375 -0.53125 0.703125 -0.8125 C 0.554688 -1.101562 0.484375 -1.425781 0.484375 -1.78125 L 0.484375 -4.25 L 1.125 -4.25 L 1.125 -1.78125 C 1.125 -1.40625 1.234375 -1.097656 1.453125 -0.859375 C 1.679688 -0.628906 1.972656 -0.515625 2.328125 -0.515625 C 2.679688 -0.515625 2.96875 -0.628906 3.1875 -0.859375 C 3.414062 -1.097656 3.53125 -1.40625 3.53125 -1.78125 L 3.53125 -4.25 L 4.171875 -4.25 L 4.171875 -1.78125 C 4.171875 -1.425781 4.09375 -1.101562 3.9375 -0.8125 C 3.789062 -0.53125 3.578125 -0.304688 3.296875 -0.140625 C 3.015625 0.015625 2.691406 0.09375 2.328125 0.09375 Z M 2.328125 0.09375 "/></g></g></g><g fill="#ffffff" fill-opacity="1"><g transform="translate(56.726369, 20.365634)"><g><path d="M 2.515625 -4.34375 C 2.859375 -4.34375 3.160156 -4.257812 3.421875 -4.09375 C 3.691406 -3.925781 3.894531 -3.703125 4.03125 -3.421875 C 4.175781 -3.140625 4.25 -2.820312 4.25 -2.46875 L 4.25 0 L 3.609375 0 L 3.609375 -2.46875 C 3.609375 -2.851562 3.503906 -3.160156 3.296875 -3.390625 C 3.085938 -3.617188 2.800781 -3.734375 2.4375 -3.734375 C 2.195312 -3.734375 1.984375 -3.679688 1.796875 -3.578125 C 1.609375 -3.472656 1.457031 -3.320312 1.34375 -3.125 C 1.226562 -2.9375 1.171875 -2.71875 1.171875 -2.46875 L 1.171875 0 L 0.515625 0 L 0.515625 -4.25 L 1.171875 -4.25 L 1.171875 -3.6875 C 1.347656 -3.90625 1.550781 -4.066406 1.78125 -4.171875 C 2.007812 -4.285156 2.253906 -4.34375 2.515625 -4.34375 Z M 2.515625 -4.34375 "/></g></g></g><g fill="#ffffff" fill-opacity="1"><g transform="translate(61.456892, 20.365634)"><g><path d="M 3.96875 -6.25 L 4.609375 -6.25 L 4.609375 0 L 3.96875 0 L 3.96875 -0.65625 C 3.78125 -0.425781 3.550781 -0.242188 3.28125 -0.109375 C 3.007812 0.0234375 2.710938 0.09375 2.390625 0.09375 C 2.003906 0.09375 1.644531 -0.00390625 1.3125 -0.203125 C 0.976562 -0.398438 0.710938 -0.664062 0.515625 -1 C 0.316406 -1.34375 0.21875 -1.71875 0.21875 -2.125 C 0.21875 -2.539062 0.316406 -2.914062 0.515625 -3.25 C 0.710938 -3.59375 0.976562 -3.859375 1.3125 -4.046875 C 1.644531 -4.242188 2.003906 -4.34375 2.390625 -4.34375 C 2.710938 -4.34375 3.007812 -4.273438 3.28125 -4.140625 C 3.550781 -4.003906 3.78125 -3.828125 3.96875 -3.609375 Z M 2.453125 -0.515625 C 2.734375 -0.515625 2.992188 -0.585938 3.234375 -0.734375 C 3.472656 -0.878906 3.660156 -1.070312 3.796875 -1.3125 C 3.929688 -1.550781 4 -1.820312 4 -2.125 C 4 -2.425781 3.929688 -2.695312 3.796875 -2.9375 C 3.660156 -3.1875 3.472656 -3.378906 3.234375 -3.515625 C 2.992188 -3.660156 2.734375 -3.734375 2.453125 -3.734375 C 2.171875 -3.734375 1.910156 -3.660156 1.671875 -3.515625 C 1.429688 -3.378906 1.238281 -3.1875 1.09375 -2.9375 C 0.957031 -2.695312 0.890625 -2.425781 0.890625 -2.125 C 0.890625 -1.820312 0.957031 -1.550781 1.09375 -1.3125 C 1.238281 -1.070312 1.429688 -0.878906 1.671875 -0.734375 C 1.910156 -0.585938 2.171875 -0.515625 2.453125 -0.515625 Z M 2.453125 -0.515625 "/></g></g></g><g fill="#ffffff" fill-opacity="1"><g transform="translate(66.630088, 20.365634)"><g><path d="M 3.96875 -4.25 L 4.609375 -4.25 L 4.609375 0 L 3.96875 0 L 3.96875 -0.65625 C 3.78125 -0.425781 3.550781 -0.242188 3.28125 -0.109375 C 3.007812 0.0234375 2.710938 0.09375 2.390625 0.09375 C 2.003906 0.09375 1.644531 -0.00390625 1.3125 -0.203125 C 0.976562 -0.398438 0.710938 -0.664062 0.515625 -1 C 0.316406 -1.34375 0.21875 -1.71875 0.21875 -2.125 C 0.21875 -2.539062 0.316406 -2.914062 0.515625 -3.25 C 0.710938 -3.59375 0.976562 -3.859375 1.3125 -4.046875 C 1.644531 -4.242188 2.003906 -4.34375 2.390625 -4.34375 C 2.710938 -4.34375 3.007812 -4.273438 3.28125 -4.140625 C 3.550781 -4.003906 3.78125 -3.828125 3.96875 -3.609375 Z M 2.453125 -0.515625 C 2.734375 -0.515625 2.992188 -0.585938 3.234375 -0.734375 C 3.472656 -0.878906 3.660156 -1.070312 3.796875 -1.3125 C 3.929688 -1.550781 4 -1.820312 4 -2.125 C 4 -2.425781 3.929688 -2.695312 3.796875 -2.9375 C 3.660156 -3.1875 3.472656 -3.378906 3.234375 -3.515625 C 2.992188 -3.660156 2.734375 -3.734375 2.453125 -3.734375 C 2.171875 -3.734375 1.910156 -3.660156 1.671875 -3.515625 C 1.429688 -3.378906 1.238281 -3.1875 1.09375 -2.9375 C 0.957031 -2.695312 0.890625 -2.425781 0.890625 -2.125 C 0.890625 -1.820312 0.957031 -1.550781 1.09375 -1.3125 C 1.238281 -1.070312 1.429688 -0.878906 1.671875 -0.734375 C 1.910156 -0.585938 2.171875 -0.515625 2.453125 -0.515625 Z M 2.453125 -0.515625 "/></g></g></g><g fill="#ffffff" fill-opacity="1"><g transform="translate(71.759887, 20.365634)"><g><path d="M 2.390625 0.09375 C 2.003906 0.09375 1.644531 -0.00390625 1.3125 -0.203125 C 0.976562 -0.398438 0.710938 -0.664062 0.515625 -1 C 0.316406 -1.34375 0.21875 -1.71875 0.21875 -2.125 C 0.21875 -2.539062 0.316406 -2.914062 0.515625 -3.25 C 0.710938 -3.59375 0.976562 -3.859375 1.3125 -4.046875 C 1.644531 -4.242188 2.003906 -4.34375 2.390625 -4.34375 C 2.878906 -4.34375 3.3125 -4.203125 3.6875 -3.921875 C 4.0625 -3.640625 4.316406 -3.242188 4.453125 -2.734375 L 3.78125 -2.734375 C 3.664062 -3.054688 3.484375 -3.300781 3.234375 -3.46875 C 2.984375 -3.644531 2.703125 -3.734375 2.390625 -3.734375 C 2.117188 -3.734375 1.867188 -3.660156 1.640625 -3.515625 C 1.410156 -3.378906 1.226562 -3.1875 1.09375 -2.9375 C 0.957031 -2.695312 0.890625 -2.425781 0.890625 -2.125 C 0.890625 -1.820312 0.957031 -1.550781 1.09375 -1.3125 C 1.226562 -1.070312 1.410156 -0.878906 1.640625 -0.734375 C 1.867188 -0.585938 2.117188 -0.515625 2.390625 -0.515625 C 2.703125 -0.515625 2.984375 -0.601562 3.234375 -0.78125 C 3.484375 -0.957031 3.664062 -1.203125 3.78125 -1.515625 L 4.453125 -1.515625 C 4.316406 -1.003906 4.0625 -0.609375 3.6875 -0.328125 C 3.3125 -0.046875 2.878906 0.09375 2.390625 0.09375 Z M 2.390625 0.09375 "/></g></g></g><g fill="#ffffff" fill-opacity="1"><g transform="translate(76.386252, 20.365634)"><g><path d="M 1.171875 0 L 0.515625 0 L 0.515625 -4.25 L 1.171875 -4.25 Z M 1.21875 -5.171875 L 0.484375 -5.171875 L 0.484375 -5.421875 L 1.21875 -5.421875 Z M 1.21875 -5.171875 "/></g></g></g><g fill="#ffffff" fill-opacity="1"><g transform="translate(78.078827, 20.365634)"><g><path d="M 2.4375 0.09375 C 2.03125 0.09375 1.65625 -0.00390625 1.3125 -0.203125 C 0.976562 -0.398438 0.710938 -0.664062 0.515625 -1 C 0.316406 -1.34375 0.21875 -1.71875 0.21875 -2.125 C 0.21875 -2.539062 0.316406 -2.914062 0.515625 -3.25 C 0.710938 -3.59375 0.976562 -3.859375 1.3125 -4.046875 C 1.65625 -4.242188 2.03125 -4.34375 2.4375 -4.34375 C 2.84375 -4.34375 3.210938 -4.242188 3.546875 -4.046875 C 3.890625 -3.859375 4.160156 -3.59375 4.359375 -3.25 C 4.566406 -2.914062 4.671875 -2.539062 4.671875 -2.125 C 4.671875 -1.71875 4.566406 -1.34375 4.359375 -1 C 4.160156 -0.664062 3.890625 -0.398438 3.546875 -0.203125 C 3.210938 -0.00390625 2.84375 0.09375 2.4375 0.09375 Z M 2.4375 -0.515625 C 2.71875 -0.515625 2.976562 -0.585938 3.21875 -0.734375 C 3.457031 -0.878906 3.644531 -1.070312 3.78125 -1.3125 C 3.914062 -1.550781 3.984375 -1.820312 3.984375 -2.125 C 3.984375 -2.425781 3.914062 -2.695312 3.78125 -2.9375 C 3.644531 -3.1875 3.457031 -3.378906 3.21875 -3.515625 C 2.976562 -3.660156 2.71875 -3.734375 2.4375 -3.734375 C 2.15625 -3.734375 1.894531 -3.660156 1.65625 -3.515625 C 1.425781 -3.378906 1.238281 -3.1875 1.09375 -2.9375 C 0.957031 -2.695312 0.890625 -2.425781 0.890625 -2.125 C 0.890625 -1.820312 0.957031 -1.550781 1.09375 -1.3125 C 1.238281 -1.070312 1.425781 -0.878906 1.65625 -0.734375 C 1.894531 -0.585938 2.15625 -0.515625 2.4375 -0.515625 Z M 3.578125 -5.546875 L 1.828125 -4.953125 L 1.75 -5.171875 L 3.5 -5.78125 Z M 3.578125 -5.546875 "/></g></g></g><g fill="#ffffff" fill-opacity="1"><g transform="translate(82.956909, 20.365634)"><g><path d="M 2.515625 -4.34375 C 2.859375 -4.34375 3.160156 -4.257812 3.421875 -4.09375 C 3.691406 -3.925781 3.894531 -3.703125 4.03125 -3.421875 C 4.175781 -3.140625 4.25 -2.820312 4.25 -2.46875 L 4.25 0 L 3.609375 0 L 3.609375 -2.46875 C 3.609375 -2.851562 3.503906 -3.160156 3.296875 -3.390625 C 3.085938 -3.617188 2.800781 -3.734375 2.4375 -3.734375 C 2.195312 -3.734375 1.984375 -3.679688 1.796875 -3.578125 C 1.609375 -3.472656 1.457031 -3.320312 1.34375 -3.125 C 1.226562 -2.9375 1.171875 -2.71875 1.171875 -2.46875 L 1.171875 0 L 0.515625 0 L 0.515625 -4.25 L 1.171875 -4.25 L 1.171875 -3.6875 C 1.347656 -3.90625 1.550781 -4.066406 1.78125 -4.171875 C 2.007812 -4.285156 2.253906 -4.34375 2.515625 -4.34375 Z M 2.515625 -4.34375 "/></g></g></g><g fill="#ffffff" fill-opacity="1"><g transform="translate(87.690653, 20.365634)"><g/></g></g><g fill="#ffffff" fill-opacity="1"><g transform="translate(48.637604, 28.985201)"><g><path d="M 6.421875 -6.078125 L 7.171875 0 L 6.46875 0 L 5.90625 -4.953125 L 3.90625 0 L 3.625 0 L 1.59375 -4.546875 L 1.0625 0 L 0.390625 0 L 1.125 -6.078125 L 1.640625 -6.078125 L 4 -0.75 L 6.140625 -6.078125 Z M 6.421875 -6.078125 "/></g></g></g><g fill="#ffffff" fill-opacity="1"><g transform="translate(56.189084, 28.985201)"><g><path d="M 3.96875 -4.25 L 4.609375 -4.25 L 4.609375 0 L 3.96875 0 L 3.96875 -0.65625 C 3.78125 -0.425781 3.550781 -0.242188 3.28125 -0.109375 C 3.007812 0.0234375 2.710938 0.09375 2.390625 0.09375 C 2.003906 0.09375 1.644531 -0.00390625 1.3125 -0.203125 C 0.976562 -0.398438 0.710938 -0.664062 0.515625 -1 C 0.316406 -1.34375 0.21875 -1.71875 0.21875 -2.125 C 0.21875 -2.539062 0.316406 -2.914062 0.515625 -3.25 C 0.710938 -3.59375 0.976562 -3.859375 1.3125 -4.046875 C 1.644531 -4.242188 2.003906 -4.34375 2.390625 -4.34375 C 2.710938 -4.34375 3.007812 -4.273438 3.28125 -4.140625 C 3.550781 -4.003906 3.78125 -3.828125 3.96875 -3.609375 Z M 2.453125 -0.515625 C 2.734375 -0.515625 2.992188 -0.585938 3.234375 -0.734375 C 3.472656 -0.878906 3.660156 -1.070312 3.796875 -1.3125 C 3.929688 -1.550781 4 -1.820312 4 -2.125 C 4 -2.425781 3.929688 -2.695312 3.796875 -2.9375 C 3.660156 -3.1875 3.472656 -3.378906 3.234375 -3.515625 C 2.992188 -3.660156 2.734375 -3.734375 2.453125 -3.734375 C 2.171875 -3.734375 1.910156 -3.660156 1.671875 -3.515625 C 1.429688 -3.378906 1.238281 -3.1875 1.09375 -2.9375 C 0.957031 -2.695312 0.890625 -2.425781 0.890625 -2.125 C 0.890625 -1.820312 0.957031 -1.550781 1.09375 -1.3125 C 1.238281 -1.070312 1.429688 -0.878906 1.671875 -0.734375 C 1.910156 -0.585938 2.171875 -0.515625 2.453125 -0.515625 Z M 2.453125 -0.515625 "/></g></g></g><g fill="#ffffff" fill-opacity="1"><g transform="translate(61.318883, 28.985201)"><g><path d="M 2.859375 -4.296875 L 2.859375 -3.6875 L 2.4375 -3.6875 C 2.195312 -3.6875 1.984375 -3.632812 1.796875 -3.53125 C 1.609375 -3.425781 1.457031 -3.273438 1.34375 -3.078125 C 1.226562 -2.890625 1.171875 -2.675781 1.171875 -2.4375 L 1.171875 0 L 0.515625 0 L 0.515625 -4.25 L 1.171875 -4.25 L 1.171875 -3.65625 C 1.347656 -3.863281 1.550781 -4.019531 1.78125 -4.125 C 2.007812 -4.238281 2.253906 -4.296875 2.515625 -4.296875 Z M 2.859375 -4.296875 "/></g></g></g><g fill="#ffffff" fill-opacity="1"><g transform="translate(64.139841, 28.985201)"><g><path d="M 3.875 -4.25 L 4.53125 -4.25 L 4.53125 -0.265625 C 4.53125 0.140625 4.4375 0.5 4.25 0.8125 C 4.070312 1.132812 3.820312 1.382812 3.5 1.5625 C 3.175781 1.738281 2.804688 1.828125 2.390625 1.828125 C 1.878906 1.828125 1.4375 1.6875 1.0625 1.40625 C 0.695312 1.125 0.453125 0.726562 0.328125 0.21875 L 0.984375 0.21875 C 1.078125 0.539062 1.25 0.785156 1.5 0.953125 C 1.75 1.128906 2.046875 1.21875 2.390625 1.21875 C 2.847656 1.21875 3.207031 1.082031 3.46875 0.8125 C 3.738281 0.539062 3.875 0.179688 3.875 -0.265625 L 3.875 -0.8125 C 3.6875 -0.59375 3.460938 -0.414062 3.203125 -0.28125 C 2.953125 -0.15625 2.671875 -0.09375 2.359375 -0.09375 C 1.960938 -0.09375 1.601562 -0.179688 1.28125 -0.359375 C 0.957031 -0.535156 0.695312 -0.785156 0.5 -1.109375 C 0.3125 -1.429688 0.21875 -1.800781 0.21875 -2.21875 C 0.21875 -2.625 0.3125 -2.988281 0.5 -3.3125 C 0.695312 -3.644531 0.957031 -3.898438 1.28125 -4.078125 C 1.601562 -4.253906 1.960938 -4.34375 2.359375 -4.34375 C 2.671875 -4.34375 2.953125 -4.273438 3.203125 -4.140625 C 3.460938 -4.015625 3.6875 -3.835938 3.875 -3.609375 Z M 2.40625 -0.6875 C 2.6875 -0.6875 2.941406 -0.753906 3.171875 -0.890625 C 3.410156 -1.023438 3.59375 -1.207031 3.71875 -1.4375 C 3.851562 -1.675781 3.921875 -1.9375 3.921875 -2.21875 C 3.921875 -2.5 3.851562 -2.753906 3.71875 -2.984375 C 3.59375 -3.222656 3.410156 -3.40625 3.171875 -3.53125 C 2.941406 -3.664062 2.6875 -3.734375 2.40625 -3.734375 C 2.125 -3.734375 1.863281 -3.664062 1.625 -3.53125 C 1.394531 -3.40625 1.210938 -3.222656 1.078125 -2.984375 C 0.953125 -2.753906 0.890625 -2.5 0.890625 -2.21875 C 0.890625 -1.9375 0.953125 -1.675781 1.078125 -1.4375 C 1.210938 -1.207031 1.394531 -1.023438 1.625 -0.890625 C 1.863281 -0.753906 2.125 -0.6875 2.40625 -0.6875 Z M 2.40625 -0.6875 "/></g></g></g><g fill="#ffffff" fill-opacity="1"><g transform="translate(69.182843, 28.985201)"><g><path d="M 3.96875 -4.25 L 4.609375 -4.25 L 4.609375 0 L 3.96875 0 L 3.96875 -0.65625 C 3.78125 -0.425781 3.550781 -0.242188 3.28125 -0.109375 C 3.007812 0.0234375 2.710938 0.09375 2.390625 0.09375 C 2.003906 0.09375 1.644531 -0.00390625 1.3125 -0.203125 C 0.976562 -0.398438 0.710938 -0.664062 0.515625 -1 C 0.316406 -1.34375 0.21875 -1.71875 0.21875 -2.125 C 0.21875 -2.539062 0.316406 -2.914062 0.515625 -3.25 C 0.710938 -3.59375 0.976562 -3.859375 1.3125 -4.046875 C 1.644531 -4.242188 2.003906 -4.34375 2.390625 -4.34375 C 2.710938 -4.34375 3.007812 -4.273438 3.28125 -4.140625 C 3.550781 -4.003906 3.78125 -3.828125 3.96875 -3.609375 Z M 2.453125 -0.515625 C 2.734375 -0.515625 2.992188 -0.585938 3.234375 -0.734375 C 3.472656 -0.878906 3.660156 -1.070312 3.796875 -1.3125 C 3.929688 -1.550781 4 -1.820312 4 -2.125 C 4 -2.425781 3.929688 -2.695312 3.796875 -2.9375 C 3.660156 -3.1875 3.472656 -3.378906 3.234375 -3.515625 C 2.992188 -3.660156 2.734375 -3.734375 2.453125 -3.734375 C 2.171875 -3.734375 1.910156 -3.660156 1.671875 -3.515625 C 1.429688 -3.378906 1.238281 -3.1875 1.09375 -2.9375 C 0.957031 -2.695312 0.890625 -2.425781 0.890625 -2.125 C 0.890625 -1.820312 0.957031 -1.550781 1.09375 -1.3125 C 1.238281 -1.070312 1.429688 -0.878906 1.671875 -0.734375 C 1.910156 -0.585938 2.171875 -0.515625 2.453125 -0.515625 Z M 2.453125 -0.515625 "/></g></g></g><g fill="#ffffff" fill-opacity="1"><g transform="translate(74.312642, 28.985201)"><g><path d="M 2.859375 -4.296875 L 2.859375 -3.6875 L 2.4375 -3.6875 C 2.195312 -3.6875 1.984375 -3.632812 1.796875 -3.53125 C 1.609375 -3.425781 1.457031 -3.273438 1.34375 -3.078125 C 1.226562 -2.890625 1.171875 -2.675781 1.171875 -2.4375 L 1.171875 0 L 0.515625 0 L 0.515625 -4.25 L 1.171875 -4.25 L 1.171875 -3.65625 C 1.347656 -3.863281 1.550781 -4.019531 1.78125 -4.125 C 2.007812 -4.238281 2.253906 -4.296875 2.515625 -4.296875 Z M 2.859375 -4.296875 "/></g></g></g><g fill="#ffffff" fill-opacity="1"><g transform="translate(77.133599, 28.985201)"><g><path d="M 1.171875 0 L 0.515625 0 L 0.515625 -4.25 L 1.171875 -4.25 Z M 1.21875 -5.171875 L 0.484375 -5.171875 L 0.484375 -5.421875 L 1.21875 -5.421875 Z M 1.21875 -5.171875 "/></g></g></g><g fill="#ffffff" fill-opacity="1"><g transform="translate(78.826174, 28.985201)"><g><path d="M 2.390625 -4.078125 L 1.296875 -4.078125 L 1.296875 -1.296875 C 1.296875 -1.085938 1.359375 -0.921875 1.484375 -0.796875 C 1.609375 -0.671875 1.78125 -0.609375 2 -0.609375 L 2.390625 -0.609375 L 2.390625 0 L 1.953125 0 C 1.566406 0 1.253906 -0.113281 1.015625 -0.34375 C 0.773438 -0.582031 0.65625 -0.890625 0.65625 -1.265625 L 0.65625 -4.078125 L -0.046875 -4.078125 L -0.046875 -4.25 L 0.65625 -4.25 L 0.65625 -5.390625 L 1.296875 -5.390625 L 1.296875 -4.25 L 2.390625 -4.25 Z M 2.390625 -4.078125 "/></g></g></g><g fill="#ffffff" fill-opacity="1"><g transform="translate(81.256535, 28.985201)"><g><path d="M 3.96875 -4.25 L 4.609375 -4.25 L 4.609375 0 L 3.96875 0 L 3.96875 -0.65625 C 3.78125 -0.425781 3.550781 -0.242188 3.28125 -0.109375 C 3.007812 0.0234375 2.710938 0.09375 2.390625 0.09375 C 2.003906 0.09375 1.644531 -0.00390625 1.3125 -0.203125 C 0.976562 -0.398438 0.710938 -0.664062 0.515625 -1 C 0.316406 -1.34375 0.21875 -1.71875 0.21875 -2.125 C 0.21875 -2.539062 0.316406 -2.914062 0.515625 -3.25 C 0.710938 -3.59375 0.976562 -3.859375 1.3125 -4.046875 C 1.644531 -4.242188 2.003906 -4.34375 2.390625 -4.34375 C 2.710938 -4.34375 3.007812 -4.273438 3.28125 -4.140625 C 3.550781 -4.003906 3.78125 -3.828125 3.96875 -3.609375 Z M 2.453125 -0.515625 C 2.734375 -0.515625 2.992188 -0.585938 3.234375 -0.734375 C 3.472656 -0.878906 3.660156 -1.070312 3.796875 -1.3125 C 3.929688 -1.550781 4 -1.820312 4 -2.125 C 4 -2.425781 3.929688 -2.695312 3.796875 -2.9375 C 3.660156 -3.1875 3.472656 -3.378906 3.234375 -3.515625 C 2.992188 -3.660156 2.734375 -3.734375 2.453125 -3.734375 C 2.171875 -3.734375 1.910156 -3.660156 1.671875 -3.515625 C 1.429688 -3.378906 1.238281 -3.1875 1.09375 -2.9375 C 0.957031 -2.695312 0.890625 -2.425781 0.890625 -2.125 C 0.890625 -1.820312 0.957031 -1.550781 1.09375 -1.3125 C 1.238281 -1.070312 1.429688 -0.878906 1.671875 -0.734375 C 1.910156 -0.585938 2.171875 -0.515625 2.453125 -0.515625 Z M 2.453125 -0.515625 "/></g></g></g></svg>